<?xml version="1.0" standalone="no"?>
<!DOCTYPE svg PUBLIC "-//W3C//DTD SVG 20010904//EN"
 "http://www.w3.org/TR/2001/REC-SVG-20010904/DTD/svg10.dtd">
<svg version="1.0" xmlns="http://www.w3.org/2000/svg"
 width="520.000000pt" height="520.000000pt" viewBox="0 0 520.000000 520.000000"
 preserveAspectRatio="xMidYMid meet">
<metadata>
Created by potrace 1.11, written by Peter Selinger 2001-2013
</metadata>
<g transform="translate(0.000000,520.000000) scale(0.100000,-0.100000)"
fill="#000000" stroke="none">
<path d="M0 2600 l0 -2600 2600 0 2600 0 0 2600 0 2600 -2600 0 -2600 0 0
-2600z m2861 1836 c178 -24 301 -62 449 -137 287 -146 489 -391 556 -675 23
-98 24 -255 1 -321 -24 -69 -85 -137 -145 -160 -58 -22 -227 -25 -318 -4 l-61
13 -6 97 c-17 258 -120 492 -270 612 -119 95 -238 131 -437 132 -112 1 -148
-3 -215 -21 -110 -32 -188 -76 -269 -152 -179 -169 -280 -417 -332 -816 -25
-189 -25 -614 0 -789 43 -307 124 -521 265 -698 137 -172 306 -255 541 -264
291 -12 558 85 860 313 115 87 100 88 204 -14 69 -67 132 -157 157 -223 l18
-46 -37 -35 c-222 -208 -570 -385 -882 -448 -222 -45 -473 -50 -658 -15 -594
114 -963 625 -1057 1464 -24 209 -17 634 13 828 38 240 95 430 184 608 184
365 441 590 805 705 185 58 416 75 634 46z"/>
</g>
</svg>
